<svg width="220" height="186" viewBox="0 0 220 186" fill="none" xmlns="http://www.w3.org/2000/svg">
<path d="M152.186 135.276H135.276V152.186H118.367V169.096H101.457V152.186H84.5479V135.276H67.6387V118.367H152.186V135.276ZM84.5479 33.8193H101.457V50.7285H118.367V33.8193H135.276V16.9092H186.005V33.8193H202.915V84.5479H186.005V101.457H169.096V118.366H50.7285V101.457H33.8193V84.5479H16.9092V33.8193H33.8193V16.9092H84.5479V33.8193Z" fill="#EF1D26"/>
<path d="M50.5088 67.6377H33.5986V50.7285H50.5088V67.6377ZM67.418 50.7285H50.5088V33.8184H67.418V50.7285Z" fill="white"/>
<path d="M118.367 186.005H101.457V169.096H118.367V186.005ZM101.457 169.096H84.5479V152.186H101.457V169.096ZM135.276 169.096H118.367V152.186H135.276V169.096ZM84.5479 152.186H67.6387V135.276H84.5479V152.186ZM152.186 152.186H135.276V135.276H152.186V152.186ZM67.6387 135.276H50.7285V118.367H67.6387V135.276ZM169.096 135.276H152.186V118.367H169.096V135.276ZM50.7285 118.366H33.8193V101.457H50.7285V118.366ZM186.005 118.366H169.096V101.457H186.005V118.366ZM33.8193 101.457H16.9092V84.5479H33.8193V101.457ZM202.915 33.8193H219.824V84.5479H202.915V101.457H186.005V84.5479H202.914V33.8193H186.005V16.9092H202.915V33.8193ZM16.9092 84.5479H0V33.8193H16.9092V84.5479ZM118.367 50.7285H101.457V33.8193H118.367V50.7285ZM33.8193 33.8193H16.9092V16.9092H33.8193V33.8193ZM101.457 33.8193H84.5479V16.9092H101.457V33.8193ZM135.276 33.8193H118.367V16.9092H135.276V33.8193ZM84.5479 16.9092H33.8193V0H84.5479V16.9092ZM186.005 16.9092H135.276V0H186.005V16.9092Z" fill="black"/>
</svg>
