<svg width="1395" height="465" viewBox="0 0 1395 465" fill="none" xmlns="http://www.w3.org/2000/svg">
<rect x="655.226" y="321.284" width="16.9095" height="16.9095" fill="#FEF7EA"/>
<rect x="655.226" y="338.193" width="16.9095" height="16.9095" fill="#FEF7EA"/>
<rect x="655.226" y="355.103" width="16.9095" height="16.9095" fill="#FCC509"/>
<rect x="655.226" y="372.013" width="16.9095" height="16.9095" fill="#FFE174"/>
<rect x="655.226" y="388.922" width="16.9095" height="16.9095" fill="#FCC509"/>
<rect x="655.226" y="405.832" width="16.9095" height="16.9095" fill="#FCC509"/>
<rect x="655.226" y="422.741" width="16.9095" height="16.9095" fill="#FD7902"/>
<rect x="672.136" y="321.284" width="16.9095" height="16.9095" fill="#FEF7EA"/>
<rect x="672.136" y="338.193" width="16.9095" height="16.9095" fill="#FFE076"/>
<rect x="689.045" y="338.193" width="16.9095" height="16.9095" fill="#FCC509"/>
<rect x="672.136" y="355.103" width="16.9095" height="16.9095" fill="#FFE174"/>
<rect x="672.136" y="372.013" width="16.9095" height="16.9095" fill="#FFE174"/>
<rect x="672.136" y="388.922" width="16.9095" height="16.9095" fill="#FCC509"/>
<rect x="689.045" y="355.103" width="16.9095" height="16.9095" fill="#FCC509"/>
<rect x="638.317" y="321.284" width="16.9095" height="16.9095" fill="#FFE076"/>
<rect x="638.317" y="338.193" width="16.9095" height="16.9095" fill="#FFE076"/>
<rect x="638.317" y="355.103" width="16.9095" height="16.9095" fill="#FCC509"/>
<rect x="638.317" y="372.013" width="16.9095" height="16.9095" fill="#FCC509"/>
<rect x="638.317" y="388.922" width="16.9095" height="16.9095" fill="#FCC509"/>
<rect x="638.317" y="405.832" width="16.9095" height="16.9095" fill="#FCC509"/>
<rect x="621.407" y="405.832" width="16.9095" height="16.9095" fill="#FD7902"/>
<rect x="621.407" y="338.193" width="16.9095" height="16.9095" fill="#FCC509"/>
<rect x="621.407" y="355.103" width="16.9095" height="16.9095" fill="#FE9804"/>
<rect x="621.407" y="372.013" width="16.9095" height="16.9095" fill="#FE9804"/>
<rect x="722.864" y="321.284" width="16.9095" height="16.9095" fill="#FEF7EA"/>
<rect x="722.864" y="338.193" width="16.9095" height="16.9095" fill="#FFE076"/>
<rect x="722.864" y="355.103" width="16.9095" height="16.9095" fill="#FFE174"/>
<rect x="722.864" y="372.013" width="16.9095" height="16.9095" fill="#FFE174"/>
<rect x="722.864" y="388.922" width="16.9095" height="16.9095" fill="#FFE174"/>
<rect x="722.864" y="405.832" width="16.9095" height="16.9095" fill="#FD7902"/>
<rect x="722.864" y="422.741" width="16.9095" height="16.9095" fill="#FF7701"/>
<rect x="739.774" y="321.284" width="16.9095" height="16.9095" fill="#FFE076"/>
<rect x="739.774" y="338.193" width="16.9095" height="16.9095" fill="#FFE076"/>
<rect x="756.683" y="338.193" width="16.9095" height="16.9095" fill="#FCC509"/>
<rect x="739.774" y="355.103" width="16.9095" height="16.9095" fill="#FFE076"/>
<rect x="739.774" y="372.013" width="16.9095" height="16.9095" fill="#FCC509"/>
<rect x="739.774" y="388.922" width="16.9095" height="16.9095" fill="#FE9804"/>
<rect x="756.683" y="355.103" width="16.9095" height="16.9095" fill="#FE9804"/>
<rect x="705.955" y="321.284" width="16.9095" height="16.9095" fill="#FEF7EA"/>
<rect x="705.955" y="338.193" width="16.9095" height="16.9095" fill="#FEF7EA"/>
<rect x="705.955" y="355.103" width="16.9095" height="16.9095" fill="#FCC509"/>
<rect x="705.955" y="372.013" width="16.9095" height="16.9095" fill="#FCC509"/>
<rect x="705.955" y="388.922" width="16.9095" height="16.9095" fill="#FE9804"/>
<rect x="705.955" y="405.832" width="16.9095" height="16.9095" fill="#FD7902"/>
<rect x="689.045" y="405.832" width="16.9095" height="16.9095" fill="#FE9804"/>
<rect x="689.045" y="338.193" width="16.9095" height="16.9095" fill="#FFE076"/>
<rect x="689.045" y="355.103" width="16.9095" height="16.9095" fill="#FFE076"/>
<rect x="689.045" y="372.013" width="16.9095" height="16.9095" fill="#FE9804"/>
<rect x="1119.21" y="321.284" width="16.9095" height="16.9095" fill="#FEF7EA"/>
<rect x="1119.21" y="338.193" width="16.9095" height="16.9095" fill="#FEF7EA"/>
<rect x="1119.21" y="355.103" width="16.9095" height="16.9095" fill="#FCC509"/>
<rect x="1119.21" y="372.013" width="16.9095" height="16.9095" fill="#FD7902"/>
<rect x="1119.21" y="388.922" width="16.9095" height="16.9095" fill="#FD7902"/>
<rect x="1119.21" y="405.832" width="16.9095" height="16.9095" fill="#FCC509"/>
<rect x="1119.21" y="422.741" width="16.9095" height="16.9095" fill="#FD7902"/>
<rect x="1102.3" y="439.651" width="16.9095" height="16.9095" fill="#FD7902"/>
<rect x="1136.12" y="321.284" width="16.9095" height="16.9095" fill="#FEF7EA"/>
<rect x="1136.12" y="338.193" width="16.9095" height="16.9095" fill="#FEF7EA"/>
<rect x="1153.03" y="338.193" width="16.9095" height="16.9095" fill="#FCC509"/>
<rect x="1136.12" y="355.103" width="16.9095" height="16.9095" fill="#FFE174"/>
<rect x="1136.12" y="372.013" width="16.9095" height="16.9095" fill="#FFE174"/>
<rect x="1136.12" y="388.922" width="16.9095" height="16.9095" fill="#FCC509"/>
<rect x="1153.03" y="355.103" width="16.9095" height="16.9095" fill="#FCC509"/>
<rect x="1102.3" y="321.284" width="16.9095" height="16.9095" fill="#FEF7EA"/>
<rect x="1102.3" y="338.193" width="16.9095" height="16.9095" fill="#FEF7EA"/>
<rect x="1102.3" y="355.103" width="16.9095" height="16.9095" fill="#FEF7EA"/>
<rect x="1102.3" y="372.013" width="16.9095" height="16.9095" fill="#FCC509"/>
<rect x="1102.3" y="388.922" width="16.9095" height="16.9095" fill="#FD7902"/>
<rect x="1102.3" y="405.832" width="16.9095" height="16.9095" fill="#FD7902"/>
<rect x="1085.39" y="405.832" width="16.9095" height="16.9095" fill="#FD7902"/>
<rect x="1068.48" y="405.832" width="16.9095" height="16.9095" fill="#FD7902"/>
<rect x="1085.39" y="338.193" width="16.9095" height="16.9095" fill="#FCC509"/>
<rect x="1085.39" y="355.103" width="16.9095" height="16.9095" fill="#FE9804"/>
<rect x="1085.39" y="372.013" width="16.9095" height="16.9095" fill="#FE9804"/>
<rect x="1085.39" y="388.922" width="16.9095" height="16.9095" fill="#FE9804"/>
<rect x="1186.85" y="321.284" width="16.9095" height="16.9095" fill="#FEF7EA"/>
<rect x="1186.85" y="338.193" width="16.9095" height="16.9095" fill="#FEF7EA"/>
<rect x="1186.85" y="355.103" width="16.9095" height="16.9095" fill="#FEF7EA"/>
<rect x="1186.85" y="372.013" width="16.9095" height="16.9095" fill="#FFE174"/>
<rect x="1186.85" y="388.922" width="16.9095" height="16.9095" fill="#FE9804"/>
<rect x="1186.85" y="405.832" width="16.9095" height="16.9095" fill="#FD7902"/>
<rect x="1186.85" y="422.741" width="16.9095" height="16.9095" fill="#FF7701"/>
<rect x="1203.76" y="439.651" width="16.9095" height="16.9095" fill="#FF7701"/>
<rect x="1169.94" y="439.651" width="16.9095" height="16.9095" fill="#FF7701"/>
<rect x="1203.76" y="321.284" width="16.9095" height="16.9095" fill="#FFE076"/>
<rect x="1203.76" y="338.193" width="16.9095" height="16.9095" fill="#FFE076"/>
<rect x="1220.67" y="338.193" width="16.9095" height="16.9095" fill="#FCC509"/>
<rect x="1203.76" y="355.103" width="16.9095" height="16.9095" fill="#FFE076"/>
<rect x="1203.76" y="372.013" width="16.9095" height="16.9095" fill="#FE9804"/>
<rect x="1203.76" y="388.922" width="16.9095" height="16.9095" fill="#FE9804"/>
<rect x="1220.67" y="405.832" width="16.9095" height="16.9095" fill="#FE9804"/>
<rect x="1220.67" y="355.103" width="16.9095" height="16.9095" fill="#FE9804"/>
<rect x="1237.58" y="355.103" width="16.9095" height="16.9095" fill="#FE9804"/>
<rect x="1237.58" y="372.013" width="16.9095" height="16.9095" fill="#FE9804"/>
<rect x="1169.94" y="321.284" width="16.9095" height="16.9095" fill="#FEF7EA"/>
<rect x="1169.94" y="338.193" width="16.9095" height="16.9095" fill="#FEF7EA"/>
<rect x="1169.94" y="355.103" width="16.9095" height="16.9095" fill="#FCC509"/>
<rect x="1169.94" y="372.013" width="16.9095" height="16.9095" fill="#FCC509"/>
<rect x="1169.94" y="388.922" width="16.9095" height="16.9095" fill="#FE9804"/>
<rect x="1169.94" y="405.832" width="16.9095" height="16.9095" fill="#FD7902"/>
<rect x="1169.94" y="422.741" width="16.9095" height="16.9095" fill="#FD7902"/>
<rect x="1153.03" y="405.832" width="16.9095" height="16.9095" fill="#FE9804"/>
<rect x="1153.03" y="422.741" width="16.9095" height="16.9095" fill="#FE9804"/>
<rect x="1153.03" y="338.193" width="16.9095" height="16.9095" fill="#FFE076"/>
<rect x="1153.03" y="355.103" width="16.9095" height="16.9095" fill="#FFE076"/>
<rect x="1153.03" y="372.013" width="16.9095" height="16.9095" fill="#FE9804"/>
<rect x="190.226" y="321.284" width="16.9095" height="16.9095" fill="#FEF7EA"/>
<rect x="190.226" y="338.193" width="16.9095" height="16.9095" fill="#FEF7EA"/>
<rect x="190.226" y="355.103" width="16.9095" height="16.9095" fill="#FFE174"/>
<rect x="190.226" y="372.013" width="16.9095" height="16.9095" fill="#FCC509"/>
<rect x="190.226" y="388.922" width="16.9095" height="16.9095" fill="#FCC509"/>
<rect x="190.226" y="405.832" width="16.9095" height="16.9095" fill="#FD7902"/>
<rect x="207.136" y="321.284" width="16.9095" height="16.9095" fill="#FEF7EA"/>
<rect x="207.136" y="338.193" width="16.9095" height="16.9095" fill="#FFE076"/>
<rect x="224.045" y="338.193" width="16.9095" height="16.9095" fill="#FCC509"/>
<rect x="207.136" y="355.103" width="16.9095" height="16.9095" fill="#FFE174"/>
<rect x="207.136" y="372.013" width="16.9095" height="16.9095" fill="#FE9804"/>
<rect x="207.136" y="388.922" width="16.9095" height="16.9095" fill="#FE9804"/>
<rect x="224.045" y="355.103" width="16.9095" height="16.9095" fill="#FCC509"/>
<rect x="173.317" y="321.284" width="16.9095" height="16.9095" fill="#FFE076"/>
<rect x="173.317" y="338.193" width="16.9095" height="16.9095" fill="#FCC509"/>
<rect x="173.317" y="355.103" width="16.9095" height="16.9095" fill="#FCC509"/>
<rect x="173.317" y="372.013" width="16.9095" height="16.9095" fill="#FCC509"/>
<rect x="173.317" y="388.922" width="16.9095" height="16.9095" fill="#FE9804"/>
<rect x="173.317" y="405.832" width="16.9095" height="16.9095" fill="#FD7902"/>
<rect x="156.407" y="338.193" width="16.9095" height="16.9095" fill="#FE9804"/>
<rect x="156.407" y="355.103" width="16.9095" height="16.9095" fill="#FD7902"/>
<rect x="257.864" y="321.284" width="16.9095" height="16.9095" fill="#FEF7EA"/>
<rect x="257.864" y="338.193" width="16.9095" height="16.9095" fill="#FFE076"/>
<rect x="257.864" y="355.103" width="16.9095" height="16.9095" fill="#FFE174"/>
<rect x="257.864" y="372.013" width="16.9095" height="16.9095" fill="#FCC509"/>
<rect x="257.864" y="388.922" width="16.9095" height="16.9095" fill="#FE9804"/>
<rect x="257.864" y="405.832" width="16.9095" height="16.9095" fill="#FD7902"/>
<rect x="274.774" y="321.284" width="16.9095" height="16.9095" fill="#FFE076"/>
<rect x="274.774" y="338.193" width="16.9095" height="16.9095" fill="#FFE076"/>
<rect x="291.683" y="338.193" width="16.9095" height="16.9095" fill="#FCC509"/>
<rect x="274.774" y="355.103" width="16.9095" height="16.9095" fill="#FCC509"/>
<rect x="274.774" y="372.013" width="16.9095" height="16.9095" fill="#FCC509"/>
<rect x="240.955" y="321.284" width="16.9095" height="16.9095" fill="#FEF7EA"/>
<rect x="240.955" y="338.193" width="16.9095" height="16.9095" fill="#FEF7EA"/>
<rect x="240.955" y="355.103" width="16.9095" height="16.9095" fill="#FCC509"/>
<rect x="240.955" y="372.013" width="16.9095" height="16.9095" fill="#FCC509"/>
<rect x="240.955" y="388.922" width="16.9095" height="16.9095" fill="#FE9804"/>
<rect x="240.955" y="405.832" width="16.9095" height="16.9095" fill="#FD7902"/>
<rect x="224.045" y="338.193" width="16.9095" height="16.9095" fill="#FFE076"/>
<rect x="224.045" y="355.103" width="16.9095" height="16.9095" fill="#FFE076"/>
</svg>
